# xmcd
#
# Track frame offsets: 
#        150
#        19432
#        37980
#        56615
#        72377
#        94220
#        117962
#        136557
#        160855
#        179450
#        196850
#        213495
#
# Disc length: 3135 seconds
#
# Revision: 2
# Processed by: cddbd v1.5.2PL0 Copyright (c) Steve Scherf et al.
# Submitted via: ExactAudioCopy v1.0b3
#
DISCID=a60c3d0c
DTITLE=Shirley Brown - Holding My Own
DYEAR=2000
DGENRE=Soul
TTITLE0=Sweet Lips, Big Hips
TTITLE1=If You Keep Using My Love
TTITLE2=How Close We Came
TTITLE3=Is There A Lover In The House
TTITLE4=Sticking By My Man
TTITLE5=Walking Or Crawling
TTITLE6=Cold Turkey
TTITLE7=The Best Woman
TTITLE8=Wrapped Up In Your Love
TTITLE9=If I Were Your Woman
TTITLE10=When A Man Loves A Woman
TTITLE11=Through The Storm
EXTD=
EXTT0=
EXTT1=
EXTT2=
EXTT3=
EXTT4=
EXTT5=
EXTT6=
EXTT7=
EXTT8=
EXTT9=
EXTT10=
EXTT11=
PLAYORDER=
